<?xml version="1.0" encoding="UTF-8"?>
<svg id="Capa_1" xmlns="http://www.w3.org/2000/svg" version="1.1" viewBox="0 0 752.82 74.87">
  <!-- Generator: Adobe Illustrator 30.6.0, SVG Export Plug-In . SVG Version: 2.1.4 Build 109)  -->
  <defs>
    <style>
      .st0 {
        fill: #00d6e8;
      }

      .st1 {
        fill: #2f4870;
      }
    </style>
  </defs>
  <path class="st1" d="M61.08,66.79l-7.05,7.34c-.93.93-1.95,1.01-2.96.07l-14.01-12.83c-1.69.25-3.47.41-5.33.41C13.45,61.72-.06,48.39,0,31.29.05,13.94,13.64.69,31.92.75c18.12.06,31.45,12.97,31.39,30.74-.03,9.99-4.46,18.52-11.67,23.92l9.37,8.41c1.01.93,1.01,1.95.07,2.96M31.77,47.14c8.8.03,15.26-6.89,15.29-15.7.03-9.06-6.38-16.02-15.18-16.05-8.97-.03-15.6,6.98-15.63,15.95-.03,8.72,6.55,15.77,15.52,15.79"/>
  <path class="st1" d="M127.63,33.6l.1-30.73c0-1.36.77-2.12,2.12-2.11l11.93.04c1.36,0,2.11.77,2.11,2.12l-.1,32c-.02,5.5,2.76,11.77,11.14,11.8,8.46.03,11.45-6.23,11.46-11.73l.1-32c0-1.35.77-2.11,2.12-2.11l11.93.04c1.35,0,2.12.77,2.11,2.12l-.1,30.73c-.06,18.11-11.09,27.39-27.68,27.34-16.34-.05-27.31-9.4-27.25-27.51"/>
  <path class="st1" d="M358.79,33.6l.1-30.73c0-1.36.77-2.12,2.12-2.11l11.94.04c1.35,0,2.11.77,2.11,2.12l-.1,31.99c-.02,5.5,2.76,11.77,11.14,11.8,8.46.03,11.45-6.23,11.46-11.73l.1-32c0-1.35.77-2.11,2.12-2.11l11.93.04c1.36,0,2.11.77,2.11,2.12l-.1,30.73c-.06,18.11-11.09,27.39-27.68,27.34-16.34-.05-27.31-9.4-27.25-27.51"/>
  <path class="st1" d="M523.71,48.38l-.03,9.9c0,1.36-.77,2.11-2.12,2.11l-38.43-.12c-1.35,0-2.11-.77-2.11-2.12l.18-55.27c0-1.36.77-2.12,2.12-2.11l12.02.04c1.35,0,2.11.77,2.11,2.12l-.14,43.26,24.29.08c1.36,0,2.11.77,2.11,2.12"/>
  <path class="st1" d="M752.81,3.06l-.03,9.99c0,1.35-.77,2.11-2.12,2.11l-17.18-.05-.14,43.17c0,1.35-.77,2.11-2.12,2.11l-11.93-.04c-1.35,0-2.11-.77-2.11-2.12l.14-43.17-16.93-.05c-1.35,0-2.11-.77-2.11-2.12l.03-9.99c0-1.35.77-2.12,2.12-2.11l50.28.16c1.35,0,2.12.77,2.11,2.12"/>
  <path class="st1" d="M640.3,4.86l-.17,52.9c0,1.37-.88,2.24-2.38,2.24l-9.86-.03c-1.5,0-2.37-.76-2.49-2.26l-.36-5.49c-4.26,5.1-10.51,8.83-18.99,8.8-15.85-.05-27.53-12.94-27.48-29.91.05-16.97,12.2-29.78,28.04-29.73,7.61.02,13.59,2.79,17.95,6.8l.39-3.49c.13-1.37,1.01-2.12,2.38-2.12l10.61.03c1.5,0,2.37.88,2.37,2.25M624.49,31.26c.03-8.74-5.69-14.99-14.68-15.02-8.36-.03-14.74,6.32-14.77,14.93-.03,8.48,6.32,14.99,14.68,15.02,8.98.03,14.87-6.32,14.77-14.93"/>
  <path class="st0" d="M269.4.06c-15.59.97-28.28,13.66-29.25,29.25-1.13,18.19,13.29,33.3,31.24,33.3,12.07,0,22.52-6.84,27.74-16.84.49-.95-.04-2.11-1.09-2.34l-8.88-1.98c-.65-.14-1.3.14-1.67.69-3.49,5.18-9.39,8.6-16.1,8.6-11.46,0-20.61-9.92-19.31-21.65.98-8.8,8.03-15.96,16.82-17.06,9.8-1.22,18.37,4.87,21.04,13.55h-25.86c-1.02,0-1.9.7-2.12,1.69l-1.32,5.77c-.31,1.36.72,2.66,2.12,2.66h37.85c1.03,0,1.88-.79,1.97-1.82.07-.85.11-1.71.11-2.58,0-17.95-15.11-32.37-33.3-31.24h.01Z"/>
</svg>