<?xml version="1.0" encoding="UTF-8"?>
<svg id="Capa_1" xmlns="http://www.w3.org/2000/svg" version="1.1" viewBox="0 0 450.54 139.41">
  <!-- Generator: Adobe Illustrator 30.6.0, SVG Export Plug-In . SVG Version: 2.1.4 Build 109)  -->
  <defs>
    <style>
      .st0 {
        opacity: .75;
      }

      .st1 {
        opacity: .5;
      }

      .st2 {
        fill: #00aea5;
      }

      .st3 {
        fill: #cfcfcf;
      }
    </style>
  </defs>
  <path class="st3" d="M381.13,139.2H17.71c-4.85,0-8.8-3.95-8.8-8.8v-12.99c0-1.43,1.16-2.59,2.59-2.59s2.59,1.16,2.59,2.59v12.99c0,1.99,1.62,3.61,3.61,3.61h363.42c1.43,0,2.59,1.16,2.59,2.59s-1.16,2.59-2.59,2.59h0Z"/>
  <path class="st3" d="M440.93,36.42c-1.43,0-2.59-1.16-2.59-2.59v-12.3c0-1.99-1.62-3.61-3.61-3.61H170.88c-1.43,0-2.59-1.16-2.59-2.59s1.16-2.59,2.59-2.59h263.85c4.85,0,8.8,3.95,8.8,8.8v12.3c0,1.43-1.16,2.59-2.59,2.59h-.01Z"/>
  <path class="st3" d="M444.84,128.01c-3.14,0-5.7,2.56-5.7,5.7s2.56,5.7,5.7,5.7,5.7-2.56,5.7-5.7-2.56-5.7-5.7-5.7ZM444.84,137.84c-2.28,0-4.13-1.85-4.13-4.13s1.85-4.13,4.13-4.13,4.13,1.85,4.13,4.13-1.85,4.13-4.13,4.13ZM446.91,132.97c0-1.15-.81-1.86-2.11-1.86h-1.93v5.21h1.1v-1.45h.97l1.06,1.46h1.37l-1.3-1.77c.53-.33.82-.89.82-1.57l.02-.02ZM444.8,133.76h-.82v-1.55h.82c1,0,1,.57,1,.76s0,.79-1,.79h0Z"/>
  <g>
    <path class="st2" d="M106.63,30.54c-6.69,0-12.13-5.44-12.13-12.13s5.44-12.13,12.13-12.13,12.13,5.44,12.13,12.13-5.44,12.13-12.13,12.13ZM106.63,8.69c-5.36,0-9.72,4.36-9.72,9.72s4.36,9.72,9.72,9.72,9.72-4.36,9.72-9.72-4.36-9.72-9.72-9.72Z"/>
    <path class="st2" d="M50.89,30.54c-6.69,0-12.13-5.44-12.13-12.13s5.44-12.13,12.13-12.13,12.13,5.44,12.13,12.13v.04c0,.66-.54,1.19-1.2,1.19h-20.57c.61,4.78,4.7,8.49,9.65,8.49,1.99,0,3.91-.6,5.54-1.73,1.6-1.11,2.81-2.65,3.52-4.45.24-.62.94-.92,1.56-.68.62.24.92.94.68,1.56-.88,2.25-2.4,4.16-4.38,5.55-2.04,1.41-4.43,2.16-6.91,2.16h-.02ZM41.24,17.24h19.31c-.58-4.81-4.69-8.56-9.66-8.56s-9.08,3.74-9.65,8.56Z"/>
    <path class="st2" d="M79.16,30.53c-6.69,0-12.13-5.44-12.13-12.13s5.44-12.13,12.13-12.13c4.98,0,9.39,2.98,11.25,7.6.25.62-.05,1.32-.67,1.56-.62.25-1.32-.05-1.56-.67-1.49-3.7-5.03-6.09-9.02-6.09-5.36,0-9.72,4.36-9.72,9.72s4.36,9.72,9.72,9.72c3.99,0,7.53-2.39,9.02-6.09.25-.62.95-.91,1.56-.67.62.25.91.95.67,1.56-1.86,4.62-6.28,7.6-11.25,7.6v.02Z"/>
    <path class="st2" d="M130.82,30.47c-.66,0-1.2-.54-1.2-1.2s.54-1.2,1.2-1.2c5.36,0,9.72-4.36,9.72-9.72,0-6.68,5.44-12.12,12.12-12.12.66,0,1.2.54,1.2,1.2s-.54,1.2-1.2,1.2c-5.36,0-9.72,4.36-9.72,9.72,0,6.68-5.44,12.12-12.12,12.12Z"/>
    <g>
      <path class="st2" d="M130.64,30.67c-.67,0-1.21-.54-1.21-1.21s.54-1.21,1.21-1.21c5.41,0,9.8-4.4,9.8-9.8,0-6.74,5.48-12.23,12.23-12.23.67,0,1.21.54,1.21,1.21s-.54,1.21-1.21,1.21c-5.41,0-9.8,4.4-9.8,9.8,0,6.74-5.48,12.23-12.23,12.23Z"/>
      <g class="st1">
        <path class="st2" d="M141.71,30.67c-.67,0-1.21-.54-1.21-1.21s.54-1.21,1.21-1.21c5.41,0,9.8-4.4,9.8-9.8,0-6.74,5.48-12.23,12.23-12.23.67,0,1.21.54,1.21,1.21s-.54,1.21-1.21,1.21c-5.41,0-9.8,4.4-9.8,9.8,0,6.74-5.48,12.23-12.23,12.23Z"/>
      </g>
      <g class="st0">
        <path class="st2" d="M119.73,30.67c-.67,0-1.21-.54-1.21-1.21s.54-1.21,1.21-1.21c5.41,0,9.8-4.4,9.8-9.8,0-6.74,5.48-12.23,12.23-12.23.67,0,1.21.54,1.21,1.21s-.54,1.21-1.21,1.21c-5.41,0-9.8,4.4-9.8,9.8,0,6.74-5.48,12.23-12.23,12.23Z"/>
      </g>
    </g>
    <g>
      <path class="st3" d="M123.4,25.57c-.38,0-.69-.31-.69-.69V7.06c0-3.89,3.17-7.06,7.06-7.06h30.31c.38,0,.69.31.69.69v3.53c0,.38-.31.69-.69.69s-.69-.31-.69-.69V1.39h-29.62c-3.13,0-5.67,2.54-5.67,5.67v17.82c0,.38-.31.69-.69.69h0Z"/>
      <path class="st3" d="M152.65,36.9h-29.25c-.38,0-.69-.31-.69-.69v-3.55c0-.38.31-.69.69-.69s.69.31.69.69v2.86h28.56c3.71,0,6.73-3.02,6.73-6.73V11.71c0-.38.31-.69.69-.69s.69.31.69.69v17.08c0,4.48-3.64,8.12-8.12,8.12h0Z"/>
    </g>
  </g>
  <g>
    <path class="st2" d="M0,102.37V3.53C0,1.46,1.16.3,3.23.3h16.55c2.07,0,3.23,1.16,3.23,3.23v98.84c0,2.07-1.16,3.23-3.23,3.23H3.23c-2.07,0-3.23-1.16-3.23-3.23Z"/>
    <path class="st2" d="M90.65,78.59c0,2.07-1.42,3.1-3.36,3.1h-36.71c1.68,4.39,5.69,7.37,13.31,7.37,5.69,0,9.44-1.55,11.76-2.97,1.81-1.16,3.36-.9,4.52.9l5.43,8.79c1.03,1.68.91,3.36-.65,4.52-3.88,2.84-11.5,6.46-23.78,6.46-20.68,0-33.61-13.7-33.61-30.89,0-18.61,13.44-30.89,31.93-30.89s31.15,13.31,31.15,31.67v1.94h.01ZM50.45,68.77h18.36c-.52-3.75-3.49-6.59-9.18-6.59-4.14,0-7.63,1.81-9.18,6.59Z"/>
    <path class="st2" d="M160.42,49.38v53c0,2.07-1.16,3.23-3.23,3.23h-14.35c-1.94,0-3.1-.9-3.36-2.97l-.52-3.23c-4.01,4.27-9.44,7.37-16.42,7.37-16.67,0-28.44-13.31-28.44-30.89s12.67-30.89,29.21-30.89c6.08,0,10.73,1.94,14.48,5.04l.26-1.03c.39-1.81,1.55-2.84,3.49-2.84h15.64c2.07,0,3.23,1.16,3.23,3.23v-.02ZM138.32,75.87c0-5.82-4.01-10.47-10.6-10.47s-10.47,4.78-10.47,10.47,4.14,10.47,10.47,10.47,10.6-4.91,10.6-10.47Z"/>
    <path class="st2" d="M210.9,48.6l-1.42,18.1c-.13,2.2-1.42,3.1-3.36,2.58-1.03-.26-1.94-.39-3.36-.39-6.46,0-12.67,3.49-12.67,12.8v20.68c0,2.07-1.16,3.23-3.23,3.23h-16.68c-2.07,0-3.23-1.16-3.23-3.23v-53c0-2.07,1.16-3.23,3.23-3.23h12.67c1.94,0,3.23,1.16,3.36,3.1l.52,7.5c1.81-7.11,9.44-11.76,18.74-11.76.9,0,1.81,0,2.58.13,2.07.13,2.97,1.55,2.84,3.49h0Z"/>
    <path class="st2" d="M279.77,72.77v29.6c0,2.07-1.16,3.23-3.23,3.23h-16.81c-2.07,0-3.23-1.16-3.23-3.23v-24.82c0-6.33-3.62-10.47-8.92-10.47s-9.18,3.49-9.18,10.86v24.43c0,2.07-1.16,3.23-3.23,3.23h-16.8c-2.07,0-3.23-1.16-3.23-3.23v-53c0-2.07,1.16-3.23,3.23-3.23h10.86c1.94,0,3.23,1.16,3.36,3.1l.39,4.39c3.36-5.04,10.21-8.66,19.39-8.66,16.03,0,27.4,11.12,27.4,27.79h0Z"/>
    <path class="st2" d="M380.7,72.77v29.6c0,2.07-1.16,3.23-3.23,3.23h-16.81c-2.07,0-3.23-1.16-3.23-3.23v-24.82c0-6.33-3.62-10.47-8.92-10.47s-9.18,3.49-9.18,10.86v24.43c0,2.07-1.16,3.23-3.23,3.23h-16.8c-2.07,0-3.23-1.16-3.23-3.23v-53c0-2.07,1.16-3.23,3.23-3.23h10.86c1.94,0,3.23,1.16,3.36,3.1l.39,4.39c3.36-5.04,10.21-8.66,19.39-8.66,16.03,0,27.4,11.12,27.4,27.79h0Z"/>
    <path class="st2" d="M450.53,48.89v52.32c0,17.84-12.28,32.25-33.61,32.25-14.99,0-22.23-3.1-27.4-6.72-1.68-1.16-1.81-2.71-.78-4.39l6.33-9.69c1.03-1.68,2.59-2.07,4.39-1.03,4.01,2.07,8.4,2.97,15.77,2.97,6.98,0,12.67-3.1,12.67-8.27v-5.75c-3.75,2.97-8.53,4.78-14.48,4.78-16.93,0-28.7-11.89-28.7-29.47s11.76-30.89,28.96-30.89c7.5,0,13.31,2.71,17.84,6.72l.26-2.94c.26-1.94,1.55-3.1,3.49-3.1h12.02c2.07,0,3.23,1.16,3.23,3.23v-.02ZM428.95,75.88c0-5.82-4.01-10.47-10.6-10.47s-10.47,4.78-10.47,10.47,4.14,10.47,10.47,10.47,10.6-4.91,10.6-10.47Z"/>
    <path class="st2" d="M285.53,60.34v42.03c0,2.07,1.16,3.23,3.23,3.23h16.8c2.07,0,3.23-1.16,3.23-3.23v-42.39c-3.36,2.2-7.49,3.43-11.97,3.43-4.23,0-8.11-1.1-11.3-3.08h0Z"/>
  </g>
  <path class="st3" d="M296.87,30.04c-8.32.13-14.76,5.77-14.76,14.09s6.44,14.23,14.76,14.23,15.03-5.77,15.03-14.23-6.71-14.36-15.03-14.09ZM297.34,52.22c-4.47,0-8.1-3.33-8.1-7.44,0-.22.02-.44.04-.65,1.41,2.79,4.49,4.72,8.06,4.72s6.65-1.93,8.06-4.72c.02.21.04.43.04.65,0,4.11-3.63,7.44-8.1,7.44Z"/>
</svg>