<?xml version="1.0" encoding="UTF-8"?>
<svg id="Capa_1" xmlns="http://www.w3.org/2000/svg" version="1.1" viewBox="0 0 430.36 114.49">
  <!-- Generator: Adobe Illustrator 30.6.0, SVG Export Plug-In . SVG Version: 2.1.4 Build 109)  -->
  <defs>
    <style>
      .st0 {
        fill: #a7bed5;
      }

      .st1 {
        fill: #3b3d3a;
      }
    </style>
  </defs>
  <polygon class="st1" points="210.05 1.1 265.29 1.1 265.29 12.08 222.79 12.08 222.79 29.43 262.88 29.43 262.88 40.31 222.79 40.31 222.79 61.28 266.83 61.28 266.83 72.27 210.05 72.27 210.05 1.1"/>
  <path class="st1" d="M281.87,1.1h11.09l9.88,13.84c5.05,7.03,16.14,22.84,16.14,22.84,0,0,11.09-15.7,16.04-22.73l9.88-13.95h11.09v71.17h-12.74V22.85s-2.2,3.95-6.81,10.65l-17.46,25.04-17.68-25.26c-4.39-6.37-6.7-10.43-6.7-10.43v49.42h-12.74V1.1h0Z"/>
  <path class="st1" d="M373.14,63.15l4.94-9.67c5.82,4.72,12.96,8.35,23.61,8.35,7.69,0,15.38-3.62,15.38-10.1s-7.36-8.46-14.61-10.21c-13.07-3.07-26.58-7.25-26.58-21.42,0-13.29,12.63-20.1,25.81-20.1,10.21,0,18.12,2.86,25.26,7.69l-4.94,9.77c-6.37-4.06-12.96-5.93-20.32-5.93-4.72,0-12.85,1.98-12.85,8.46,0,5.71,6.37,7.58,14.94,9.66,13.51,3.19,26.58,8.24,26.58,22.08,0,14.94-14.72,21.64-28.77,21.64-15.49,0-23.72-5.82-28.45-10.21"/>
  <path class="st0" d="M38.8,42.47c3.13-3.13,3.13-8.22,0-11.35-3.13-3.13-8.22-3.13-11.35,0-3.14,3.13-3.14,8.22,0,11.35,3.13,3.13,8.22,3.13,11.35,0"/>
  <path class="st0" d="M48.46,19.81c3.82-3.82,3.82-10.02,0-13.84s-10.02-3.82-13.84,0c-3.82,3.82-3.82,10.02,0,13.84s10.02,3.82,13.84,0"/>
  <path class="st0" d="M35.37,54.81c-3.78,3.78-3.78,9.9,0,13.67,3.78,3.78,9.9,3.78,13.67,0,3.78-3.78,3.78-9.9,0-13.67-3.78-3.78-9.9-3.78-13.67,0"/>
  <path class="st0" d="M20.21,52.25h0c-7.98-7.7-8.23-22.38-.53-30.36h0c4.2-4.34,4.16-11.26-.12-15.54-4.33-4.33-11.35-4.33-15.68,0C-.45,10.68-.45,17.7,3.88,22.03c.05.05.1.09.15.14h0c7.98,7.7,8.23,22.38.53,30.36h0c-4.2,4.34-4.16,11.26.12,15.54,4.33,4.33,11.35,4.33,15.68,0s4.33-11.35,0-15.68c-.05-.05-.1-.09-.15-.14"/>
  <path class="st0" d="M87.82,52.25h.01c-7.97-7.7-8.23-22.38-.53-30.36h-.01c4.2-4.34,4.16-11.26-.12-15.54-4.33-4.33-11.35-4.33-15.68,0-4.33,4.33-4.33,11.35,0,15.68.05.05.1.09.15.14h-.01c7.98,7.7,8.23,22.38.53,30.36h.01c-4.2,4.34-4.16,11.26.12,15.54,4.33,4.33,11.35,4.33,15.68,0s4.33-11.35,0-15.68c-.05-.05-.1-.09-.15-.14"/>
  <path class="st0" d="M127.65,52.25h0c-7.98-7.7-8.23-22.38-.53-30.36h0c4.2-4.34,4.16-11.26-.12-15.54-4.33-4.33-11.35-4.33-15.68,0-4.33,4.33-4.33,11.35,0,15.68.05.05.1.09.15.14h0c7.98,7.7,8.23,22.38.53,30.36h0c-4.2,4.34-4.16,11.26.12,15.54s11.35,4.33,15.68,0c4.33-4.33,4.33-11.35,0-15.68-.05-.05-.1-.09-.15-.14"/>
  <path class="st0" d="M190.71,19.81c3.82-3.82,3.82-10.02,0-13.84s-10.02-3.82-13.84,0c-3.82,3.82-3.82,10.02,0,13.84s10.02,3.82,13.84,0"/>
  <path class="st0" d="M145.83,54.81c-3.78,3.78-3.78,9.9,0,13.67,3.78,3.78,9.9,3.78,13.67,0,3.78-3.78,3.78-9.9,0-13.67-3.78-3.78-9.9-3.78-13.67,0"/>
  <path class="st0" d="M187.44,49.37c-.22-.05-.44-.07-.66-.1-11.76-4.03-25.06-20.99-23.99-33.17.06-.33.1-.66.13-1,.02-.14.03-.27.06-.41l-.04.03c.24-5.35-3.42-10.23-8.83-11.35-6-1.23-11.86,2.63-13.09,8.63-1.12,5.44,1.96,10.76,7.02,12.62l-.08.05c.2.04.4.09.6.14.31.1.62.17.94.24,11.75,3.44,25.36,20.99,24.76,33.49-.07.46-.12.93-.13,1.38-.03.22-.05.45-.09.66l.09-.07c.13,5.03,3.7,9.5,8.85,10.56,6,1.23,11.86-2.63,13.09-8.63s-2.63-11.86-8.63-13.09"/>
  <path class="st0" d="M106.51,29.06c-3.82-3.82-10.02-3.82-13.84,0-3.82,3.82-3.82,10.02,0,13.84,3.82,3.82,10.02,3.82,13.84,0,3.82-3.82,3.82-10.02,0-13.84"/>
  <polygon points="0 87.57 10.87 87.57 10.87 88.52 1.17 88.52 1.17 96.84 10.16 96.84 10.16 97.79 1.17 97.79 1.17 106.87 10.87 106.87 10.87 107.83 0 107.83 0 87.57"/>
  <path d="M14.89,94.84h.31c.43,0,.61-.03.74-.12v3.28c.71-2.15,2.7-3.38,5.16-3.38,2.82,0,4.3,1.41,4.3,4.42v8.78h-1.04v-8.65c0-2.58-1.1-3.62-3.47-3.62-2.85,0-4.94,1.75-4.94,4.76v7.52h-1.04v-12.98h-.02Z"/>
  <polygon points="28.55 94.84 29.62 94.84 34.53 106.63 39.48 94.84 40.46 94.84 34.96 107.82 34.04 107.82 28.55 94.84"/>
  <path d="M43.28,90.15c0-.52.37-.92.92-.92s.92.4.92.92-.37.92-.92.92-.92-.4-.92-.92M43.68,94.84h.31c.37,0,.58,0,.74-.12v13.11h-1.04v-12.98h0Z"/>
  <path d="M49.88,94.84h.31c.43,0,.61-.03.74-.12v3.25c.61-2.21,2.21-3.35,4.21-3.35,1.78,0,2.79.92,3.31,2.52l-.89.52c-.55-1.5-1.32-2.12-2.64-2.12-2.36,0-3.99,1.72-3.99,4.85v7.43h-1.04v-12.98h0Z"/>
  <path d="M59.92,101.32c0-3.62,2.79-6.69,6.32-6.69s6.32,3.07,6.32,6.69-2.79,6.72-6.32,6.72-6.32-3.07-6.32-6.72M71.49,101.32c0-3.19-2.27-5.77-5.25-5.77s-5.25,2.58-5.25,5.77,2.27,5.8,5.25,5.8,5.25-2.58,5.25-5.8"/>
  <path d="M76.68,94.84h.31c.43,0,.61-.03.74-.12v3.28c.71-2.15,2.7-3.38,5.16-3.38,2.82,0,4.3,1.41,4.3,4.42v8.78h-1.04v-8.65c0-2.58-1.11-3.62-3.47-3.62-2.85,0-4.94,1.75-4.94,4.76v7.52h-1.04v-12.98h-.02Z"/>
  <path d="M92.3,94.84h.31c.37,0,.58,0,.74-.12v3.28c.68-2.12,2.61-3.38,5.03-3.38s3.77,1.1,4.11,3.41c.68-2.12,2.64-3.41,5.1-3.41,2.73,0,4.17,1.44,4.17,4.42v8.78h-1.04v-8.65c0-2.55-1.07-3.62-3.34-3.62-2.76,0-4.82,1.75-4.82,4.76v7.52h-1.04v-8.65c0-2.55-1.07-3.62-3.35-3.62-2.76,0-4.82,1.75-4.82,4.76v7.52h-1.04v-13Z"/>
  <path d="M115.85,101.35c0-3.65,2.7-6.72,6.08-6.72s5.95,3.04,5.99,6.84h-11.02c.03,3.1,2.24,5.65,5.37,5.65,2.15,0,3.68-.98,4.57-2.92l.86.46c-1.04,2.15-2.95,3.38-5.4,3.38-3.71,0-6.45-3.01-6.45-6.69M116.89,100.67h9.98c-.15-2.67-2.15-5.19-4.97-5.19s-4.82,2.52-5,5.19"/>
  <path d="M132.02,94.84h.31c.43,0,.61-.03.74-.12v3.28c.71-2.15,2.7-3.38,5.16-3.38,2.82,0,4.3,1.41,4.3,4.42v8.78h-1.04v-8.65c0-2.58-1.11-3.62-3.47-3.62-2.85,0-4.94,1.75-4.94,4.76v7.52h-1.04v-12.98h-.02Z"/>
  <path d="M148.2,103.01v-7.34h-2.79v-.74h1.66c1.04,0,1.29-.58,1.29-1.54v-2.82h.15c.37,0,.58,0,.74-.12v4.39h5.46v.83h-5.46v7.4c0,2.98,1.38,4.08,3.25,4.08,1.04,0,1.96-.43,2.64-1.23l.68.58c-.68.95-1.9,1.53-3.32,1.53-2.55,0-4.3-1.6-4.3-5.03"/>
  <path d="M156.92,104.69c0-2.45,2.12-3.47,5.52-3.78,2.61-.25,3.35-.58,3.35-2.27,0-2.15-1.04-3.13-3.38-3.13-2.03,0-3.47.74-4.11,2.09l-.77-.43c.71-1.6,2.61-2.55,5-2.55,2.82,0,4.3,1.38,4.3,4.21v8.99h-1.01v-2.64c-.65,1.78-2.36,2.85-4.76,2.85-2.55,0-4.14-1.26-4.14-3.35M165.82,103.04v-2.67c-.46.89-1.35,1.17-3.25,1.35-2.98.28-4.6,1.01-4.6,2.92,0,1.6,1.2,2.55,3.25,2.55,2.73,0,4.6-1.53,4.6-4.14"/>
  <path d="M171.99,87.57h.31c.43,0,.61-.03.74-.12v20.38h-1.04v-20.26h-.01Z"/>
  <polygon points="184.51 87.57 185.62 87.57 194.06 102.27 202.5 87.57 203.54 87.57 203.54 107.83 202.47 107.83 202.47 89.59 194.36 103.65 193.69 103.65 185.59 89.59 185.59 107.83 184.51 107.83 184.51 87.57"/>
  <path d="M207.9,101.32c0-3.62,2.79-6.69,6.32-6.69s6.32,3.07,6.32,6.69-2.79,6.72-6.32,6.72-6.32-3.07-6.32-6.72M219.47,101.32c0-3.19-2.27-5.77-5.25-5.77s-5.25,2.58-5.25,5.77,2.27,5.8,5.25,5.8,5.25-2.58,5.25-5.8"/>
  <path d="M224.66,94.84h.31c.43,0,.61-.03.74-.12v3.28c.71-2.15,2.7-3.38,5.16-3.38,2.82,0,4.3,1.41,4.3,4.42v8.78h-1.04v-8.65c0-2.58-1.11-3.62-3.47-3.62-2.85,0-4.94,1.75-4.94,4.76v7.52h-1.04v-12.98h-.02Z"/>
  <path d="M239.89,90.15c0-.52.37-.92.92-.92s.92.4.92.92-.37.92-.92.92-.92-.4-.92-.92M240.29,94.84h.31c.37,0,.58,0,.74-.12v13.11h-1.04v-12.98h0Z"/>
  <path d="M247.04,103.01v-7.34h-2.79v-.74h1.66c1.04,0,1.29-.58,1.29-1.54v-2.82h.15c.37,0,.58,0,.74-.12v4.39h5.46v.83h-5.46v7.4c0,2.98,1.38,4.08,3.25,4.08,1.04,0,1.96-.43,2.64-1.23l.68.58c-.68.95-1.9,1.53-3.31,1.53-2.55,0-4.3-1.6-4.3-5.03"/>
  <path d="M255.79,101.32c0-3.62,2.79-6.69,6.32-6.69s6.32,3.07,6.32,6.69-2.79,6.72-6.32,6.72-6.32-3.07-6.32-6.72M267.36,101.32c0-3.19-2.27-5.77-5.25-5.77s-5.25,2.58-5.25,5.77,2.27,5.8,5.25,5.8,5.25-2.58,5.25-5.8"/>
  <path d="M272.55,94.84h.31c.43,0,.61-.03.74-.12v3.25c.61-2.21,2.21-3.35,4.21-3.35,1.78,0,2.79.92,3.31,2.52l-.89.52c-.55-1.5-1.32-2.12-2.64-2.12-2.36,0-3.99,1.72-3.99,4.85v7.43h-1.04v-12.98h0Z"/>
  <path d="M283.47,90.15c0-.52.37-.92.92-.92s.92.4.92.92-.37.92-.92.92-.92-.4-.92-.92M283.87,94.84h.31c.37,0,.58,0,.74-.12v13.11h-1.04v-12.98h0Z"/>
  <path d="M290.07,94.84h.31c.43,0,.61-.03.74-.12v3.28c.71-2.15,2.7-3.38,5.16-3.38,2.82,0,4.3,1.41,4.3,4.42v8.78h-1.04v-8.65c0-2.58-1.11-3.62-3.47-3.62-2.85,0-4.94,1.75-4.94,4.76v7.52h-1.04v-12.98h-.02Z"/>
  <path d="M305.91,112.03l.77-.61c1.01,1.53,2.33,2.18,4.6,2.18,3.13,0,4.91-1.96,4.91-5.56v-4.02c-.92,2.39-2.82,4.02-5.34,4.02-3.47,0-6.2-3.13-6.2-6.72s2.73-6.69,6.2-6.69c2.52,0,4.42,1.63,5.34,4.02v-3.81h.28c.43,0,.61-.03.77-.12v13.2c0,4.11-2.3,6.57-5.99,6.57-2.55,0-4.24-.77-5.34-2.45M316.22,101.32c0-3.25-2.36-5.77-5.19-5.77-3.1,0-5.31,2.7-5.31,5.77s2.21,5.8,5.31,5.8c2.82,0,5.19-2.52,5.19-5.8"/>
  <path d="M327.24,104.02l.86-.64c.8,2.46,3.04,3.71,5.86,3.71,3.19,0,5.13-1.9,5.13-4.54,0-2-1.26-3.47-3.93-4.08l-2.64-.61c-3.04-.71-4.57-2.39-4.57-5.06,0-3.04,2.45-5.46,6.11-5.46,2.89,0,5.19,1.41,6.08,3.78l-.86.64c-.8-2.27-2.82-3.44-5.28-3.44-3.01,0-4.88,1.96-4.88,4.48,0,2.24,1.29,3.5,3.84,4.11l2.61.61c3.04.71,4.67,2.52,4.67,5.06,0,3.13-2.49,5.49-6.29,5.49-3.25,0-5.83-1.47-6.69-4.05"/>
  <path d="M343.45,101.35c0-3.65,2.7-6.72,6.08-6.72s5.95,3.04,5.99,6.84h-11.02c.03,3.1,2.24,5.65,5.37,5.65,2.15,0,3.68-.98,4.57-2.92l.86.46c-1.04,2.15-2.95,3.38-5.4,3.38-3.71,0-6.45-3.01-6.45-6.69M344.49,100.67h9.98c-.15-2.67-2.15-5.19-4.97-5.19s-4.82,2.52-5,5.19"/>
  <path d="M359.63,94.84h.31c.43,0,.61-.03.74-.12v3.25c.61-2.21,2.21-3.35,4.21-3.35,1.78,0,2.79.92,3.31,2.52l-.89.52c-.55-1.5-1.32-2.12-2.64-2.12-2.36,0-3.99,1.72-3.99,4.85v7.43h-1.04v-12.98h0Z"/>
  <polygon points="369.36 94.84 370.43 94.84 375.34 106.63 380.28 94.84 381.27 94.84 375.77 107.82 374.85 107.82 369.36 94.84"/>
  <path d="M384.09,90.15c0-.52.37-.92.92-.92s.92.4.92.92-.37.92-.92.92-.92-.4-.92-.92M384.49,94.84h.31c.37,0,.58,0,.74-.12v13.11h-1.04v-12.98h0Z"/>
  <path d="M389.65,101.35c0-3.62,2.73-6.72,6.48-6.72,2.49,0,4.39,1.32,5.22,3.59l-.83.46c-.77-2.03-2.27-3.13-4.42-3.13-3.13,0-5.37,2.61-5.37,5.8s2.21,5.77,5.31,5.77c2.12,0,3.78-.98,4.63-2.92l.8.46c-.98,2.12-2.95,3.38-5.4,3.38-3.62,0-6.42-3.01-6.42-6.69"/>
  <path d="M403.98,101.35c0-3.65,2.7-6.72,6.08-6.72s5.95,3.04,5.99,6.84h-11.02c.03,3.1,2.24,5.65,5.37,5.65,2.15,0,3.68-.98,4.57-2.92l.86.46c-1.04,2.15-2.95,3.38-5.4,3.38-3.71,0-6.45-3.01-6.45-6.69M405.02,100.67h9.98c-.15-2.67-2.15-5.19-4.97-5.19s-4.82,2.52-5,5.19"/>
  <path d="M418.81,105.92l.68-.61c.74,1.11,2.24,1.87,4.33,1.87,2.42,0,3.96-1.01,3.96-2.64,0-1.32-.58-2.09-2.86-2.52l-2.18-.4c-2.15-.4-3.35-1.47-3.35-3.38,0-2.18,1.87-3.62,4.54-3.62,2.12,0,3.81.86,4.48,2.21l-.68.61c-.61-1.23-2.06-1.96-3.9-1.96-2.03,0-3.47,1.04-3.47,2.76,0,1.38.61,2.12,2.64,2.52l2.09.4c2.46.46,3.65,1.47,3.65,3.35,0,2.15-1.96,3.53-5.03,3.53-2.24,0-4.11-.8-4.91-2.12"/>
</svg>