<?xml version="1.0" encoding="UTF-8"?>
<svg id="Capa_1" xmlns="http://www.w3.org/2000/svg" xmlns:xlink="http://www.w3.org/1999/xlink" version="1.1" viewBox="0 0 466.76 136.52">
  <!-- Generator: Adobe Illustrator 30.6.0, SVG Export Plug-In . SVG Version: 2.1.4 Build 109)  -->
  <defs>
    <style>
      .st0 {
        fill: none;
      }

      .st1 {
        fill: #ccc;
      }

      .st2 {
        opacity: .75;
      }

      .st3 {
        opacity: .5;
      }

      .st4 {
        fill: #00b0aa;
      }

      .st5 {
        clip-path: url(#clippath);
      }
    </style>
    <clipPath id="clippath">
      <rect class="st0" x="379.49" y="85.81" width=".2" height=".2"/>
    </clipPath>
  </defs>
  <g>
    <g>
      <path class="st1" d="M458.96,123.03c-3.64,0-6.6,2.96-6.6,6.6s2.96,6.6,6.6,6.6,6.6-2.96,6.6-6.6-2.96-6.6-6.6-6.6ZM458.96,134.42c-2.64,0-4.79-2.15-4.79-4.79s2.15-4.79,4.79-4.79,4.79,2.15,4.79,4.79-2.15,4.79-4.79,4.79ZM461.36,128.78c0-1.33-.94-2.16-2.44-2.16h-2.23v6.04h1.28v-1.68h1.13l1.23,1.69h1.59l-1.5-2.06c.61-.38.95-1.03.95-1.82h-.01ZM458.92,129.7h-.95v-1.8h.95c1.16,0,1.16.66,1.16.88s0,.92-1.16.92Z"/>
      <path class="st4" d="M251.04,112.99c-24.74,0-44.86-20.12-44.86-44.86s20.12-44.86,44.86-44.86,44.86,20.12,44.86,44.86-20.12,44.86-44.86,44.86h0ZM251.04,32.16c-19.83,0-35.97,16.14-35.97,35.97s16.14,35.97,35.97,35.97,35.97-16.14,35.97-35.97-16.14-35.97-35.97-35.97Z"/>
      <path class="st4" d="M44.86,112.99C20.12,112.99,0,92.87,0,68.13S20.12,23.27,44.86,23.27s44.86,20.12,44.86,44.86v.15c-.02,2.44-2,4.41-4.45,4.41H9.18c2.25,17.68,17.39,31.4,35.68,31.4,7.38,0,14.47-2.22,20.5-6.41,5.9-4.1,10.4-9.79,13.01-16.45.9-2.29,3.47-3.41,5.76-2.52,2.29.9,3.41,3.47,2.52,5.76-3.25,8.31-8.86,15.4-16.21,20.51-7.53,5.23-16.37,8-25.57,8h-.01ZM9.15,63.8h71.43c-2.13-17.79-17.34-31.65-35.72-31.65S11.29,45.99,9.15,63.8Z"/>
      <path class="st4" d="M149.41,112.96c-24.74,0-44.86-20.12-44.86-44.86s20.12-44.86,44.86-44.86c18.41,0,34.74,11.03,41.62,28.1.92,2.28-.18,4.87-2.46,5.78-2.28.92-4.87-.18-5.78-2.46-5.52-13.69-18.62-22.54-33.38-22.54-19.83,0-35.97,16.14-35.97,35.97s16.14,35.97,35.97,35.97c14.76,0,27.86-8.85,33.37-22.54.92-2.28,3.51-3.38,5.78-2.46,2.28.92,3.38,3.51,2.46,5.78-6.88,17.07-23.22,28.1-41.62,28.1v.02Z"/>
    </g>
    <g>
      <g class="st3">
        <g class="st5">
          <path class="st1" d="M379.59,85.81s-.05.01-.07.03c-.02.02-.03.04-.03.07s0,.05.03.07c.02.02.04.03.07.03s.05-.01.07-.03c.02-.02.03-.04.03-.07s-.01-.05-.03-.07-.04-.03-.07-.03"/>
        </g>
      </g>
      <g>
        <g class="st3">
          <path class="st4" d="M380.79,113.49c-2.47,0-4.48-2.01-4.48-4.48s2.01-4.48,4.48-4.48c20,0,36.26-16.27,36.26-36.26,0-24.94,20.29-45.23,45.23-45.23,2.47,0,4.48,2.01,4.48,4.48s-2.01,4.48-4.48,4.48c-20,0-36.26,16.27-36.26,36.26,0,24.94-20.29,45.23-45.22,45.23h-.01Z"/>
        </g>
        <g class="st2">
          <path class="st4" d="M299.5,113.49c-2.47,0-4.48-2.01-4.48-4.48s2.01-4.48,4.48-4.48c20,0,36.26-16.27,36.26-36.26,0-24.94,20.29-45.23,45.23-45.23,2.47,0,4.48,2.01,4.48,4.48s-2.01,4.48-4.48,4.48c-20,0-36.26,16.27-36.26,36.26,0,24.94-20.29,45.23-45.22,45.23h-.01Z"/>
        </g>
      </g>
      <g>
        <path class="st1" d="M313.05,94.59c-1.42,0-2.57-1.15-2.57-2.57V26.11c0-14.4,11.71-26.11,26.11-26.11h112.13c1.42,0,2.57,1.15,2.57,2.57v13.05c0,1.42-1.15,2.57-2.57,2.57s-2.57-1.15-2.57-2.57V5.13h-109.56c-11.57,0-20.97,9.41-20.97,20.97v65.92c0,1.42-1.15,2.57-2.57,2.57h0Z"/>
        <path class="st1" d="M421.26,136.52h-108.21c-1.42,0-2.57-1.15-2.57-2.57v-13.13c0-1.42,1.15-2.57,2.57-2.57s2.57,1.15,2.57,2.57v10.56h105.64c13.73,0,24.9-11.17,24.9-24.9v-63.18c0-1.42,1.15-2.57,2.57-2.57s2.57,1.15,2.57,2.57v63.18c0,16.56-13.47,30.03-30.03,30.03h-.01Z"/>
      </g>
    </g>
  </g>
  <path class="st4" d="M339.85,113.49c-2.47,0-4.48-2.01-4.48-4.48s2.01-4.48,4.48-4.48c20,0,36.26-16.27,36.26-36.26,0-24.94,20.29-45.23,45.23-45.23,2.47,0,4.48,2.01,4.48,4.48s-2.01,4.48-4.48,4.48c-20,0-36.26,16.27-36.26,36.26,0,24.94-20.29,45.23-45.22,45.23h-.01Z"/>
</svg>