<?xml version="1.0" encoding="UTF-8"?>
<svg id="Capa_1" data-name="Capa 1" xmlns="http://www.w3.org/2000/svg" xmlns:xlink="http://www.w3.org/1999/xlink" viewBox="0 0 800 200.24">
  <defs>
    <style>
      .cls-1 {
        fill: url(#Degradado_sin_nombre_3-10);
      }

      .cls-2 {
        fill: #fff;
      }

      .cls-3 {
        fill: url(#Degradado_sin_nombre_3-2);
      }

      .cls-4 {
        fill: url(#Degradado_sin_nombre_3-6);
      }

      .cls-5 {
        fill: url(#Degradado_sin_nombre_3-5);
      }

      .cls-6 {
        fill: url(#Degradado_sin_nombre_3-4);
      }

      .cls-7 {
        fill: url(#Degradado_sin_nombre_3-3);
      }

      .cls-8 {
        fill: url(#Degradado_sin_nombre_3-9);
      }

      .cls-9 {
        fill: url(#Degradado_sin_nombre_3-8);
      }

      .cls-10 {
        fill: url(#Degradado_sin_nombre_3-7);
      }

      .cls-11 {
        fill: url(#Degradado_sin_nombre_3);
      }
    </style>
    <linearGradient id="Degradado_sin_nombre_3" data-name="Degradado sin nombre 3" x1="20.44" y1="98.81" x2="881.32" y2="106.8" gradientUnits="userSpaceOnUse">
      <stop offset="0" stop-color="#7ce6db"/>
      <stop offset="1" stop-color="#00b194"/>
    </linearGradient>
    <linearGradient id="Degradado_sin_nombre_3-2" data-name="Degradado sin nombre 3" x1="20.79" y1="60.44" x2="881.67" y2="68.42" xlink:href="#Degradado_sin_nombre_3"/>
    <linearGradient id="Degradado_sin_nombre_3-3" data-name="Degradado sin nombre 3" x1="20.07" y1="138.37" x2="880.95" y2="146.36" xlink:href="#Degradado_sin_nombre_3"/>
    <linearGradient id="Degradado_sin_nombre_3-4" data-name="Degradado sin nombre 3" x1="20.43" y1="99.81" x2="881.31" y2="107.8" xlink:href="#Degradado_sin_nombre_3"/>
    <linearGradient id="Degradado_sin_nombre_3-5" data-name="Degradado sin nombre 3" x1="20.81" y1="58.32" x2="881.69" y2="66.31" xlink:href="#Degradado_sin_nombre_3"/>
    <linearGradient id="Degradado_sin_nombre_3-6" data-name="Degradado sin nombre 3" x1="20.09" y1="136.71" x2="880.97" y2="144.7" xlink:href="#Degradado_sin_nombre_3"/>
    <linearGradient id="Degradado_sin_nombre_3-7" data-name="Degradado sin nombre 3" x1="20.45" y1="97.45" x2="881.33" y2="105.44" xlink:href="#Degradado_sin_nombre_3"/>
    <linearGradient id="Degradado_sin_nombre_3-8" data-name="Degradado sin nombre 3" x1="20.44" y1="98.78" x2="881.32" y2="106.77" xlink:href="#Degradado_sin_nombre_3"/>
    <linearGradient id="Degradado_sin_nombre_3-9" data-name="Degradado sin nombre 3" x1="20.44" y1="98.19" x2="881.32" y2="106.18" xlink:href="#Degradado_sin_nombre_3"/>
    <linearGradient id="Degradado_sin_nombre_3-10" data-name="Degradado sin nombre 3" x1="20.46" y1="96.53" x2="881.34" y2="104.52" xlink:href="#Degradado_sin_nombre_3"/>
  </defs>
  <g>
    <path class="cls-11" d="M98.09,108.52c5.01-5.01,5.01-13.13,0-18.14-5.01-5.01-13.13-5.01-18.15,0-5.01,5.01-5.01,13.13,0,18.14,5.01,5.01,13.14,5.01,18.15,0"/>
    <path class="cls-3" d="M118.99,72.3c6.11-6.11,6.11-16.01,0-22.12-6.11-6.11-16.01-6.11-22.12,0-6.11,6.11-6.11,16.01,0,22.12,6.11,6.11,16.01,6.11,22.12,0"/>
    <path class="cls-7" d="M118.11,150.11c6.04-6.04,6.04-15.82,0-21.86-6.04-6.04-15.82-6.04-21.86,0-6.04,6.04-6.04,15.82,0,21.86,6.04,6.04,15.82,6.04,21.86,0"/>
    <path class="cls-6" d="M40.67,76.07h-.02c12.75,12.31,13.16,35.78.84,48.53h.02c-6.71,6.94-6.65,17.99.2,24.84,6.92,6.92,18.14,6.92,25.06,0,6.92-6.92,6.92-18.14,0-25.06-.08-.08-.16-.14-.24-.21h.02c-12.75-12.31-13.16-35.78-.84-48.53h-.02c6.71-6.94,6.65-17.99-.2-24.84-6.92-6.92-18.14-6.92-25.06,0-6.92,6.92-6.92,18.14,0,25.06.08.08.16.14.24.22"/>
  </g>
  <g>
    <path class="cls-5" d="M324.38,50.18c-6.11,6.11-6.11,16.01,0,22.12,6.11,6.11,16.01,6.11,22.12,0,6.11-6.11,6.11-16.01,0-22.12-6.11-6.11-16.01-6.11-22.12,0"/>
    <path class="cls-4" d="M274.76,128.25c-6.04,6.03-6.04,15.82,0,21.86,6.04,6.04,15.82,6.04,21.86,0,6.04-6.04,6.04-15.82,0-21.86-6.04-6.04-15.82-6.04-21.86,0"/>
    <path class="cls-10" d="M341.26,119.55c-.35-.07-.7-.11-1.05-.16-18.8-6.44-40.05-33.54-38.34-53.01.09-.53.16-1.07.21-1.59.03-.21.05-.43.09-.65l-.06.04c.38-8.55-5.47-16.36-14.12-18.13-9.59-1.97-18.96,4.21-20.93,13.79-1.79,8.7,3.14,17.19,11.22,20.17l-.13.09c.32.06.65.15.97.22.49.15.99.28,1.49.39,18.79,5.5,40.54,33.55,39.59,53.53-.11.74-.19,1.48-.21,2.21-.05.35-.09.71-.15,1.06l.15-.11c.21,8.05,5.91,15.19,14.14,16.88,9.59,1.97,18.96-4.21,20.93-13.79,1.97-9.59-4.21-18.96-13.8-20.93"/>
  </g>
  <g>
    <path class="cls-9" d="M177.48,149.44c6.92-6.92,6.92-18.14,0-25.06-.08-.08-.16-.14-.24-.21h.02c-12.75-12.31-13.16-35.78-.84-48.53h-.02c6.71-6.94,6.65-17.99-.2-24.84-6.92-6.92-18.14-6.92-25.06,0-6.92,6.92-6.92,18.14,0,25.06.08.08.16.14.24.22h-.02c12.75,12.31,13.16,35.78.84,48.53h.02c-6.71,6.94-6.65,17.99.2,24.84,6.92,6.92,18.14,6.92,25.06,0"/>
    <path class="cls-8" d="M214.81,50.79c-6.92,6.92-6.92,18.14,0,25.06.08.08.16.14.24.22h-.02c12.75,12.31,13.16,35.78.84,48.53h.02c-6.71,6.94-6.65,17.99.2,24.84,6.92,6.92,18.14,6.92,25.06,0,6.92-6.92,6.92-18.14,0-25.06-.08-.08-.16-.14-.24-.21h.02c-12.75-12.31-13.16-35.78-.84-48.53h-.02c6.71-6.94,6.65-17.99-.2-24.84-6.92-6.92-18.14-6.92-25.06,0"/>
    <path class="cls-1" d="M207.11,87.1c-6.11-6.11-16.01-6.11-22.12,0-6.11,6.11-6.11,16.01,0,22.12,6.11,6.11,16.01,6.11,22.12,0,6.11-6.11,6.11-16.01,0-22.12"/>
  </g>
  <g>
    <path class="cls-2" d="M494.43,100.53c0,2.24-.22,4.27-.68,6.29h-80.38c2.47,17.74,15.94,29.86,34.35,29.86,10.55,0,19.98-3.37,27.84-11.45l11.9,12.35c-10.78,11-24.03,15.94-39.29,15.94-31.21,0-53.66-22.68-53.66-52.76,0-30.09,22-52.76,50.97-52.76,28.07,0,48.95,22.68,48.95,52.54ZM413.6,92.67h61.74c-2.47-16.39-13.92-28.07-30.31-28.07-16.17,0-28.29,11.45-31.43,28.07Z"/>
    <path class="cls-2" d="M512.16,50.23h17.29s2.92,15.72,2.92,15.72c8.08-11.23,19.98-17.96,32.11-17.96,16.61,0,27.84,8.76,33.45,20.88,8.76-12.8,22.45-20.88,36.15-20.88,23.57,0,37.5,16.17,37.5,44.01v59.27s-20.21,0-20.21,0v-56.81c0-17.51-8.31-28.07-22.23-28.07-10.1,0-19.31,6.29-27.17,20.88v63.99s-20.21,0-20.21,0v-56.81c0-17.51-8.31-28.07-22.23-28.07-10.1,0-19.76,6.29-27.17,18.86v66.01s-20.21,0-20.21,0V50.23Z"/>
    <path class="cls-2" d="M761.39,60.11l-10.1,14.15c-7.41-6.29-16.84-9.88-24.47-9.88-10.33,0-15.49,4.71-15.49,11.9,0,9.21,9.66,12.57,22.9,16.39,16.39,4.49,30.54,12.12,30.54,30.09,0,17.74-13.92,30.76-37.95,30.76-15.27,0-28.06-5.17-40.19-15.27l10.55-14.37c8.98,8.53,18.86,13.02,29.64,13.02,11.45,0,18.41-5.61,18.41-13.7,0-8.98-8.98-11.9-20.66-15.27-16.62-4.94-32.78-11.23-32.78-31.21,0-16.84,14.37-28.74,35.25-28.74,12.57,0,24.92,4.49,34.35,12.13Z"/>
  </g>
</svg>