<?xml version="1.0" encoding="UTF-8"?>
<svg id="Capa_1" data-name="Capa 1" xmlns="http://www.w3.org/2000/svg" viewBox="0 0 208 203">
  <defs>
    <style>
      .cls-1 {
        fill: #00d6e8;
      }
    </style>
  </defs>
  <path class="cls-1" d="M98.34,12.59C53.98,15.35,17.87,51.46,15.11,95.83c-3.22,51.76,37.82,94.76,88.9,94.76,34.35,0,64.08-19.46,78.94-47.92,1.39-2.7-.11-6-3.1-6.66l-25.27-5.63c-1.85-.4-3.7.4-4.75,1.96-9.93,14.74-26.72,24.47-45.81,24.47-32.61,0-58.65-28.23-54.95-61.61,2.79-25.04,22.85-45.42,47.86-48.55,27.89-3.47,52.27,13.86,59.87,38.56h-73.59c-2.9,0-5.41,1.99-6.03,4.81l-3.76,16.42c-.88,3.87,2.05,7.57,6.03,7.57h107.7c2.93,0,5.35-2.25,5.61-5.18.2-2.42.31-4.87.31-7.34,0-51.08-43-92.11-94.76-88.9h.03Z"/>
</svg>